<svg xmlns="http://www.w3.org/2000/svg" xmlns:xlink="http://www.w3.org/1999/xlink" width="1441.737" height="794.354" viewBox="0 0 1441.737 794.354"><defs><linearGradient id="a" x1="1" y1="1" x2="0.703" y2="0.115" gradientUnits="objectBoundingBox"><stop offset="0" stop-color="#2aa8ff"/><stop offset="1" stop-color="#00487b"/></linearGradient></defs><g transform="translate(-2679.763 1992.219)"><path d="M521.732-2917s-267.177,153.1-277.766,378.367,286.024,347.041,495.883,337.415,380.936-146.092,405.966-192.3c.349,1.036,0-523.482,0-523.482Z" transform="translate(2975.515 924.78)" fill="#f4f4f4"/><path d="M0,285.61C86.651,230.07,187.4,141.264,358.193,62.729c214.4-98.585,419.671-51.622,422.019-51.08.019,103.622-.007,191.2-.149,190.781C755.034,248.638,583.958,385.1,374.1,394.729q-11.586.532-23.485.53C234.134,395.255,96.589,357.248,0,285.61Z" transform="translate(3341.266 -1671.167)" fill="#196ba5"/><path d="M1079.5-2544.726s-206.4-48.078-422.04,51.076-319.6,214.673-424.533,258.955S-66.7-2117.732-362.237-2220.737c.019.008,0,137.661,0,137.661H1079.5" transform="translate(3042 885.212)" opacity="0.97" fill="url(#a)"/></g></svg>